<?xml version="1.0" encoding="UTF-8" standalone="no"?>
<!-- Created with Inkscape (http://www.inkscape.org/) -->

<svg
   xmlns:dc="http://purl.org/dc/elements/1.1/"
   xmlns:cc="http://creativecommons.org/ns#"
   xmlns:rdf="http://www.w3.org/1999/02/22-rdf-syntax-ns#"
   xmlns:svg="http://www.w3.org/2000/svg"
   xmlns="http://www.w3.org/2000/svg"
   xmlns:sodipodi="http://sodipodi.sourceforge.net/DTD/sodipodi-0.dtd"
   xmlns:inkscape="http://www.inkscape.org/namespaces/inkscape"
   width="48px"
   height="48px"
   id="svg3071"
   version="1.1"
   inkscape:version="0.48.4 r9939"
   sodipodi:docname="cloudapp-uploader-symbolic.svg">
  <defs
     id="defs3073" />
  <sodipodi:namedview
     id="base"
     pagecolor="#000000"
     bordercolor="#666666"
     borderopacity="1.0"
     inkscape:pageopacity="1"
     inkscape:pageshadow="2"
     inkscape:zoom="7"
     inkscape:cx="-0.52336214"
     inkscape:cy="14.078174"
     inkscape:current-layer="layer1"
     showgrid="true"
     inkscape:grid-bbox="true"
     inkscape:document-units="px"
     inkscape:window-width="1310"
     inkscape:window-height="740"
     inkscape:window-x="56"
     inkscape:window-y="28"
     inkscape:window-maximized="1" />
  <metadata
     id="metadata3076">
    <rdf:RDF>
      <cc:Work
         rdf:about="">
        <dc:format>image/svg+xml</dc:format>
        <dc:type
           rdf:resource="http://purl.org/dc/dcmitype/StillImage" />
        <dc:title />
      </cc:Work>
    </rdf:RDF>
  </metadata>
  <g
     id="layer1"
     inkscape:label="Layer 1"
     inkscape:groupmode="layer">
    <path
       style="fill:#ffffff;fill-opacity:1;stroke-width:0.2;stroke-linejoin:round"
       inkscape:connector-curvature="0"
       d="m 11.059625,40.469897 -0.003,0.01162 0.235084,0 c 0.121658,0.0047 0.241742,0.01852 0.364489,0.01852 0.123595,0 0.243195,-0.0138 0.364853,-0.01852 l 23.052173,0 0,-0.0065 c 0.169111,0.0065 0.333742,0.02506 0.503458,0.02506 6.466511,0 11.709058,-5.284431 11.709058,-11.8036 0,-6.519289 -5.242547,-11.8036 -11.709058,-11.8036 -0.238231,0 -0.471742,0.02143 -0.706947,0.03571 -1.004858,-5.488768 -5.768884,-9.6507997 -11.505084,-9.6507997 -6.466027,0 -11.708453,5.2849157 -11.708453,11.8040837 0,0.171169 0.0184,0.338948 0.02554,0.509148 l -0.02554,-0.0016 c -5.7269996,0 -10.3704575,4.680742 -10.3704575,10.45471 0,5.57169 4.3260579,10.112374 9.7739105,10.425779 z"
       id="path4" />
  </g>
</svg>
