<?xml version="1.0" encoding="UTF-8" standalone="no"?>
<!-- Created with Inkscape (http://www.inkscape.org/) -->

<svg
   xmlns:dc="http://purl.org/dc/elements/1.1/"
   xmlns:cc="http://creativecommons.org/ns#"
   xmlns:rdf="http://www.w3.org/1999/02/22-rdf-syntax-ns#"
   xmlns:svg="http://www.w3.org/2000/svg"
   xmlns="http://www.w3.org/2000/svg"
   xmlns:sodipodi="http://sodipodi.sourceforge.net/DTD/sodipodi-0.dtd"
   xmlns:inkscape="http://www.inkscape.org/namespaces/inkscape"
   width="48px"
   height="48px"
   id="svg3071"
   version="1.1"
   inkscape:version="0.48.4 r9939"
   sodipodi:docname="icon-extensions.gnome.org.svg"
   inkscape:export-filename="/home/otto/src/gnome-shell-imgur/data/icon-extensions.gnome.org.png"
   inkscape:export-xdpi="492.17999"
   inkscape:export-ydpi="492.17999">
  <defs
     id="defs3073" />
  <sodipodi:namedview
     id="base"
     pagecolor="#ffffff"
     bordercolor="#666666"
     borderopacity="1.0"
     inkscape:pageopacity="0"
     inkscape:pageshadow="2"
     inkscape:zoom="7"
     inkscape:cx="16.833781"
     inkscape:cy="42.363889"
     inkscape:current-layer="layer1"
     showgrid="true"
     inkscape:grid-bbox="true"
     inkscape:document-units="px"
     inkscape:window-width="1310"
     inkscape:window-height="740"
     inkscape:window-x="56"
     inkscape:window-y="28"
     inkscape:window-maximized="1" />
  <metadata
     id="metadata3076">
    <rdf:RDF>
      <cc:Work
         rdf:about="">
        <dc:format>image/svg+xml</dc:format>
        <dc:type
           rdf:resource="http://purl.org/dc/dcmitype/StillImage" />
        <dc:title />
      </cc:Work>
    </rdf:RDF>
  </metadata>
  <g
     id="layer1"
     inkscape:label="Layer 1"
     inkscape:groupmode="layer">
    <rect
       style="opacity:0.87999998;fill:#000000;fill-opacity:1;stroke:#444444;stroke-width:0;stroke-linecap:square;stroke-linejoin:miter;stroke-miterlimit:4;stroke-opacity:1;stroke-dasharray:none"
       id="rect4545"
       width="46.714287"
       height="46.714287"
       x="0.6428566"
       y="0.6428566"
       ry="6.8571429" />
    <path
       style="fill:#ffffff;fill-opacity:1;stroke-width:0.2;stroke-linejoin:round"
       inkscape:connector-curvature="0"
       d="m 13.32543,37.506336 -0.0025,0.0098 0.19813,0 c 0.102534,0.004 0.203743,0.0156 0.307195,0.0156 0.104167,0 0.204967,-0.01163 0.307502,-0.0156 l 19.428589,0 0,-0.0055 c 0.142529,0.0055 0.281281,0.02112 0.42432,0.02112 5.450036,0 9.868505,-4.453768 9.868505,-9.948185 0,-5.494519 -4.418469,-9.948186 -9.868505,-9.948186 -0.200783,0 -0.397589,0.01806 -0.595821,0.0301 -0.846904,-4.625985 -4.86207,-8.1337839 -9.696595,-8.1337839 -5.449628,0 -9.867994,4.4541759 -9.867994,9.9485929 0,0.144262 0.01551,0.285669 0.02152,0.429114 l -0.02152,-0.0013 c -4.8267541,-3.7e-5 -8.7403045,3.944937 -8.7403045,8.811292 0,4.695873 3.6460425,8.522804 8.2375445,8.786945 z"
       id="path4" />
  </g>
</svg>
